<svg width="324" height="270" viewBox="0 0 324 270" fill="none" xmlns="http://www.w3.org/2000/svg">
<path d="M147.832 103.071V146.313H120.193V119.286L147.832 103.071Z" fill="url(#paint0_linear_1399_1231)"/>
<path d="M120.193 85.5941V119.286L90.839 135.315V68.405L204.444 0V33.3619L120.193 85.5941Z" fill="url(#paint1_linear_1399_1231)"/>
<path d="M175.471 85.5941V170.358L204.444 153.211V103.071L232.399 85.5941V51.0676L175.471 85.5941Z" fill="url(#paint2_linear_1399_1231)"/>
<path d="M14.3643 254.069V216.637H0V204.371H43.9379V216.637H29.5736V254.069H14.3643Z" fill="white"/>
<path d="M45.3907 240.181V228.903H69.3312V240.181H45.3907Z" fill="white"/>
<path d="M77.503 254.069V204.371H103.133C109.001 204.371 113.414 205.828 116.371 208.742C119.328 211.608 120.807 215.485 120.807 220.373C120.807 225.213 119.328 229.091 116.371 232.004C113.414 234.918 109.001 236.375 103.133 236.375H92.7122V254.069H77.503ZM92.7122 224.814H101.091C102.875 224.814 104.19 224.438 105.035 223.686C105.88 222.887 106.302 221.783 106.302 220.373C106.302 218.963 105.88 217.882 105.035 217.13C104.19 216.331 102.875 215.932 101.091 215.932H92.7122V224.814Z" fill="white"/>
<path d="M125.002 254.069V228.339C125.002 226.647 124.955 224.955 124.861 223.263C124.767 221.524 124.626 219.809 124.438 218.117H138.521L140.141 229.889H137.958C138.427 227.023 139.131 224.673 140.07 222.84C141.056 220.96 142.323 219.574 143.872 218.681C145.422 217.741 147.299 217.271 149.505 217.271C150.585 217.271 151.36 217.318 151.829 217.412C152.345 217.506 152.885 217.671 153.449 217.906V230.735C152.181 230.171 151.172 229.819 150.421 229.678C149.67 229.49 148.684 229.396 147.464 229.396C145.539 229.396 144.013 229.701 142.887 230.312C141.76 230.876 140.962 231.84 140.493 233.203C140.023 234.565 139.788 236.422 139.788 238.772V254.069H125.002Z" fill="white"/>
<path d="M174.816 254.914C170.685 254.914 167.094 254.163 164.043 252.659C160.991 251.108 158.621 248.923 156.931 246.103C155.288 243.283 154.466 239.946 154.466 236.093C154.466 232.192 155.288 228.856 156.931 226.083C158.621 223.263 160.991 221.101 164.043 219.597C167.094 218.047 170.685 217.271 174.816 217.271C178.947 217.271 182.514 218.047 185.519 219.597C188.57 221.101 190.917 223.263 192.56 226.083C194.25 228.856 195.095 232.192 195.095 236.093C195.095 239.946 194.25 243.283 192.56 246.103C190.917 248.923 188.57 251.108 185.519 252.659C182.514 254.163 178.947 254.914 174.816 254.914ZM174.816 244.129C176.506 244.129 177.844 243.518 178.829 242.296C179.815 241.074 180.308 239.007 180.308 236.093C180.308 233.179 179.815 231.111 178.829 229.889C177.844 228.668 176.506 228.057 174.816 228.057C173.079 228.057 171.718 228.668 170.732 229.889C169.746 231.111 169.253 233.179 169.253 236.093C169.253 239.007 169.746 241.074 170.732 242.296C171.718 243.518 173.079 244.129 174.816 244.129Z" fill="white"/>
<path d="M198.817 270C197.549 270 196.329 269.93 195.155 269.789C193.982 269.648 192.832 269.342 191.705 268.872V257.734C192.409 257.969 193.066 258.134 193.677 258.228C194.287 258.322 194.968 258.369 195.719 258.369C196.845 258.369 197.854 258.04 198.746 257.382C199.685 256.771 200.155 255.572 200.155 253.787V218.117H214.801V254.21C214.801 259.379 213.533 263.303 210.998 265.982C208.51 268.661 204.45 270 198.817 270ZM199.873 214.029V201.199H214.941V214.029H199.873Z" fill="white"/>
<path d="M241.469 254.914C234.709 254.914 229.475 253.223 225.766 249.839C222.058 246.455 220.204 241.85 220.204 236.022C220.204 232.404 220.955 229.185 222.457 226.365C224.006 223.545 226.165 221.336 228.935 219.738C231.751 218.094 235.037 217.271 238.793 217.271C242.548 217.271 245.67 218.094 248.158 219.738C250.646 221.383 252.5 223.639 253.72 226.506C254.941 229.326 255.551 232.568 255.551 236.234V239.054H232.596V232.427H244.637L243.44 233.414C243.44 231.111 243.041 229.443 242.243 228.409C241.445 227.328 240.342 226.788 238.934 226.788C237.291 226.788 236.047 227.446 235.202 228.762C234.404 230.03 234.005 232.098 234.005 234.965V236.445C234.005 239.171 234.662 241.145 235.976 242.367C237.338 243.542 239.333 244.129 241.961 244.129C243.745 244.129 245.435 243.965 247.031 243.636C248.627 243.26 250.153 242.672 251.608 241.873L255.27 251.39C253.392 252.518 251.279 253.387 248.932 253.998C246.632 254.609 244.144 254.914 241.469 254.914Z" fill="white"/>
<path d="M279.822 254.914C275.738 254.914 272.147 254.163 269.048 252.659C265.95 251.155 263.533 248.993 261.796 246.173C260.106 243.354 259.261 239.993 259.261 236.093C259.261 232.145 260.106 228.785 261.796 226.012C263.533 223.193 265.95 221.031 269.048 219.527C272.147 218.023 275.738 217.271 279.822 217.271C282.31 217.271 284.751 217.6 287.145 218.258C289.586 218.869 291.534 219.738 292.989 220.866L289.046 230.806C288.013 230.007 286.793 229.396 285.384 228.973C284.023 228.503 282.709 228.268 281.441 228.268C279.188 228.268 277.428 228.926 276.16 230.242C274.94 231.558 274.329 233.508 274.329 236.093C274.329 238.678 274.94 240.628 276.16 241.944C277.428 243.26 279.188 243.918 281.441 243.918C282.662 243.918 283.976 243.683 285.384 243.213C286.793 242.743 288.013 242.132 289.046 241.38L292.989 251.319C291.487 252.447 289.539 253.34 287.145 253.998C284.751 254.609 282.31 254.914 279.822 254.914Z" fill="white"/>
<path d="M317.733 254.914C312.147 254.914 307.969 253.646 305.2 251.108C302.43 248.523 301.045 244.623 301.045 239.406V228.832H294.426V218.117H301.045V210.01L315.691 206.627V218.117H324V228.832H315.691V238.983C315.691 240.816 316.137 241.991 317.029 242.508C317.968 243.025 319.001 243.283 320.127 243.283C320.925 243.283 321.582 243.236 322.099 243.142C322.662 243.048 323.296 242.884 324 242.649V253.787C322.873 254.257 321.77 254.562 320.691 254.703C319.658 254.844 318.672 254.914 317.733 254.914Z" fill="white"/>
<defs>
<linearGradient id="paint0_linear_1399_1231" x1="162" y1="0" x2="162" y2="270" gradientUnits="userSpaceOnUse">
<stop stop-color="#0DF69E"/>
<stop offset="1" stop-color="#0DF69E"/>
</linearGradient>
<linearGradient id="paint1_linear_1399_1231" x1="162" y1="0" x2="162" y2="270" gradientUnits="userSpaceOnUse">
<stop stop-color="#0DF69E"/>
<stop offset="1" stop-color="#0DF69E"/>
</linearGradient>
<linearGradient id="paint2_linear_1399_1231" x1="162" y1="0" x2="162" y2="270" gradientUnits="userSpaceOnUse">
<stop stop-color="#0DF69E"/>
<stop offset="1" stop-color="#0DF69E"/>
</linearGradient>
</defs>
</svg>
