<svg width="19" height="16" viewBox="0 0 19 16" fill="none" xmlns="http://www.w3.org/2000/svg">
<path d="M19 7.99348C18.9934 7.2915 18.7057 6.62036 18.1993 6.12547L12.3771 0.388003C12.1229 0.13949 11.7789 0 11.4204 0C11.0618 0 10.7178 0.13949 10.4636 0.388003C10.3364 0.512043 10.2354 0.659618 10.1665 0.822214C10.0976 0.98481 10.0621 1.15921 10.0621 1.33535C10.0621 1.5115 10.0976 1.68589 10.1665 1.84849C10.2354 2.01109 10.3364 2.15866 10.4636 2.2827L14.9286 6.65919H1.35714C0.997206 6.65919 0.652012 6.79976 0.397498 7.04999C0.142985 7.30022 0 7.6396 0 7.99348C0 8.34736 0.142985 8.68674 0.397498 8.93697C0.652012 9.1872 0.997206 9.32778 1.35714 9.32778H14.9286L10.4636 13.7176C10.208 13.9671 10.0637 14.3062 10.0625 14.6602C10.0612 15.0143 10.203 15.3544 10.4568 15.6056C10.7105 15.8569 11.0554 15.9987 11.4156 16C11.7757 16.0012 12.1216 15.8618 12.3771 15.6123L18.1993 9.87484C18.709 9.37668 18.997 8.70009 19 7.99348Z" fill="#141316"/>
</svg>
