<svg width="194" height="62" viewBox="0 0 194 62" fill="none" xmlns="http://www.w3.org/2000/svg">
<path d="M20.7098 37.5116V53.249H10.6665V43.4129L20.7098 37.5116Z" fill="url(#paint0_linear_1399_1216)"/>
<path d="M10.6665 31.151V43.4129L0 49.2464V24.8952L41.2811 0V12.1417L10.6665 31.151Z" fill="url(#paint1_linear_1399_1216)"/>
<path d="M30.7531 31.151V62L41.2811 55.7596V37.5116L51.4393 31.151V18.5855L30.7531 31.151Z" fill="url(#paint2_linear_1399_1216)"/>
<path d="M81.4863 40.6207V26.9978H76.2666V22.5338H92.2325V26.9978H87.0129V40.6207H81.4863Z" fill="white"/>
<path d="M92.7605 35.5666V31.4618H101.46V35.5666H92.7605Z" fill="white"/>
<path d="M104.429 40.6207V22.5338H113.743C115.875 22.5338 117.478 23.064 118.553 24.1244C119.628 25.1677 120.165 26.5788 120.165 28.3575C120.165 30.1192 119.628 31.5302 118.553 32.5906C117.478 33.651 115.875 34.1812 113.743 34.1812H109.956V40.6207H104.429ZM109.956 29.9738H113.001C113.649 29.9738 114.126 29.837 114.434 29.5633C114.741 29.2726 114.894 28.8706 114.894 28.3575C114.894 27.8444 114.741 27.451 114.434 27.1774C114.126 26.8866 113.649 26.7412 113.001 26.7412H109.956V29.9738Z" fill="white"/>
<path d="M121.689 40.6207V31.2566C121.689 30.6408 121.672 30.0251 121.638 29.4094C121.604 28.7766 121.553 28.1523 121.484 27.5366H126.602L127.19 31.821H126.397C126.568 30.7777 126.823 29.9225 127.165 29.2554C127.523 28.5713 127.983 28.0668 128.546 27.7418C129.109 27.3997 129.791 27.2287 130.593 27.2287C130.985 27.2287 131.267 27.2458 131.437 27.28C131.625 27.3142 131.821 27.3741 132.026 27.4596V32.1288C131.565 31.9236 131.199 31.7953 130.926 31.744C130.653 31.6756 130.295 31.6414 129.851 31.6414C129.152 31.6414 128.597 31.7526 128.188 31.9749C127.779 32.1801 127.489 32.5308 127.318 33.0268C127.147 33.5228 127.062 34.1983 127.062 35.0535V40.6207H121.689Z" fill="white"/>
<path d="M139.79 40.9286C138.289 40.9286 136.984 40.6549 135.876 40.1076C134.767 39.5432 133.905 38.7479 133.291 37.7217C132.694 36.6954 132.396 35.4811 132.396 34.0786C132.396 32.659 132.694 31.4447 133.291 30.4356C133.905 29.4094 134.767 28.6226 135.876 28.0753C136.984 27.5109 138.289 27.2287 139.79 27.2287C141.291 27.2287 142.588 27.5109 143.679 28.0753C144.788 28.6226 145.641 29.4094 146.238 30.4356C146.852 31.4447 147.159 32.659 147.159 34.0786C147.159 35.4811 146.852 36.6954 146.238 37.7217C145.641 38.7479 144.788 39.5432 143.679 40.1076C142.588 40.6549 141.291 40.9286 139.79 40.9286ZM139.79 37.0033C140.404 37.0033 140.89 36.781 141.249 36.3363C141.607 35.8916 141.786 35.139 141.786 34.0786C141.786 33.0182 141.607 32.2657 141.249 31.821C140.89 31.3763 140.404 31.1539 139.79 31.1539C139.159 31.1539 138.664 31.3763 138.306 31.821C137.948 32.2657 137.769 33.0182 137.769 34.0786C137.769 35.139 137.948 35.8916 138.306 36.3363C138.664 36.781 139.159 37.0033 139.79 37.0033Z" fill="white"/>
<path d="M148.512 46.4188C148.051 46.4188 147.608 46.3931 147.181 46.3418C146.755 46.2905 146.337 46.1793 145.927 46.0083V41.9548C146.183 42.0403 146.422 42.1001 146.644 42.1343C146.866 42.1686 147.113 42.1857 147.386 42.1857C147.795 42.1857 148.162 42.0659 148.486 41.8265C148.827 41.6041 148.998 41.168 148.998 40.5181V27.5366H154.32V40.672C154.32 42.5534 153.859 43.9815 152.938 44.9564C152.034 45.9313 150.559 46.4188 148.512 46.4188ZM148.895 26.0486V21.3793H154.371V26.0486H148.895Z" fill="white"/>
<path d="M164.01 40.9286C161.554 40.9286 159.652 40.3128 158.304 39.0814C156.957 37.8499 156.283 36.1738 156.283 34.053C156.283 32.736 156.556 31.5644 157.102 30.5382C157.665 29.512 158.449 28.7081 159.456 28.1266C160.479 27.528 161.673 27.2287 163.038 27.2287C164.402 27.2287 165.537 27.528 166.441 28.1266C167.345 28.7252 168.019 29.5462 168.462 30.5895C168.906 31.6157 169.127 32.7959 169.127 34.1299V35.1561H160.786V32.7446H165.162L164.727 33.1037C164.727 32.2657 164.582 31.6585 164.292 31.2822C164.002 30.8888 163.601 30.6921 163.089 30.6921C162.492 30.6921 162.04 30.9316 161.733 31.4105C161.443 31.8723 161.298 32.6248 161.298 33.6681V34.2069C161.298 35.1989 161.537 35.9172 162.014 36.3619C162.509 36.7895 163.234 37.0033 164.189 37.0033C164.837 37.0033 165.452 36.9434 166.031 36.8237C166.611 36.6869 167.166 36.4731 167.695 36.1823L169.025 39.6458C168.343 40.0563 167.575 40.3727 166.722 40.595C165.886 40.8174 164.982 40.9286 164.01 40.9286Z" fill="white"/>
<path d="M177.947 40.9286C176.463 40.9286 175.158 40.6549 174.032 40.1076C172.906 39.5603 172.028 38.7735 171.397 37.7473C170.783 36.7211 170.476 35.4982 170.476 34.0786C170.476 32.6419 170.783 31.419 171.397 30.4099C172.028 29.3837 172.906 28.597 174.032 28.0497C175.158 27.5023 176.463 27.2287 177.947 27.2287C178.851 27.2287 179.738 27.3484 180.608 27.5879C181.495 27.8102 182.203 28.1266 182.731 28.5371L181.299 32.1545C180.923 31.8637 180.48 31.6414 179.968 31.4874C179.473 31.3164 178.996 31.2309 178.535 31.2309C177.716 31.2309 177.077 31.4703 176.616 31.9492C176.173 32.4281 175.951 33.1379 175.951 34.0786C175.951 35.0193 176.173 35.7291 176.616 36.208C177.077 36.6869 177.716 36.9263 178.535 36.9263C178.979 36.9263 179.456 36.8408 179.968 36.6698C180.48 36.4988 180.923 36.2764 181.299 36.0028L182.731 39.6201C182.186 40.0306 181.478 40.3556 180.608 40.595C179.738 40.8174 178.851 40.9286 177.947 40.9286Z" fill="white"/>
<path d="M191.723 40.9286C189.693 40.9286 188.175 40.4668 187.168 39.5432C186.162 38.6025 185.659 37.1829 185.659 35.2844V31.4361H183.254V27.5366H185.659V24.5862L190.981 23.3548V27.5366H194V31.4361H190.981V35.1305C190.981 35.7975 191.143 36.2251 191.467 36.4132C191.808 36.6014 192.183 36.6954 192.593 36.6954C192.883 36.6954 193.122 36.6783 193.309 36.6441C193.514 36.6099 193.744 36.5501 194 36.4646V40.5181C193.591 40.6891 193.19 40.8003 192.797 40.8516C192.422 40.9029 192.064 40.9286 191.723 40.9286Z" fill="white"/>
<defs>
<linearGradient id="paint0_linear_1399_1216" x1="97" y1="0" x2="97" y2="62" gradientUnits="userSpaceOnUse">
<stop stop-color="#0DF69E"/>
<stop offset="1" stop-color="#0DF69E"/>
</linearGradient>
<linearGradient id="paint1_linear_1399_1216" x1="97" y1="0" x2="97" y2="62" gradientUnits="userSpaceOnUse">
<stop stop-color="#0DF69E"/>
<stop offset="1" stop-color="#0DF69E"/>
</linearGradient>
<linearGradient id="paint2_linear_1399_1216" x1="97" y1="0" x2="97" y2="62" gradientUnits="userSpaceOnUse">
<stop stop-color="#0DF69E"/>
<stop offset="1" stop-color="#0DF69E"/>
</linearGradient>
</defs>
</svg>
