<svg width="1140" height="643" viewBox="0 0 1140 643" fill="none" xmlns="http://www.w3.org/2000/svg">
<path d="M570.502 23.3521C569.034 23.3521 567.627 22.7685 566.589 21.7296C565.552 20.6906 564.969 19.2816 564.969 17.8123C564.969 16.3416 565.551 14.9309 566.588 13.8895C567.625 12.848 569.033 12.2609 570.502 12.2567C571.972 12.2609 573.381 12.8475 574.42 13.8885C575.46 14.9295 576.046 16.3401 576.05 17.8123C576.046 19.283 575.459 20.692 574.419 21.7305C573.379 22.769 571.97 23.3522 570.502 23.3521ZM570.502 14.2184C569.552 14.2226 568.643 14.6031 567.974 15.2766C567.304 15.9501 566.928 16.8619 566.928 17.8123C566.928 18.7613 567.305 19.6714 567.975 20.3424C568.645 21.0135 569.554 21.3904 570.502 21.3904C571.451 21.3905 572.361 21.014 573.034 20.3434C573.707 19.6728 574.087 18.7627 574.091 17.8123C574.087 16.8604 573.707 15.9487 573.035 15.2756C572.363 14.6025 571.452 14.2226 570.502 14.2184Z" fill="#343334"/>
<path d="M1096.27 643H43.7292C26.8018 643 2.2569 634.541 2.2569 630.963V629.99H568.934V629.817L1137.7 629.99V630.963C1137.74 634.541 1113.2 643 1096.27 643ZM5.95603 632.014C11.5672 635.028 28.761 641.101 43.7292 641.101H1096.27C1111.24 641.101 1128.43 635.028 1134.04 631.999L570.94 631.842V632.014H5.95603Z" fill="#343334"/>
<path d="M1134.42 632.046H5.57968C0.548475 632.046 0 629.095 0 627.824V610.812C0 610.059 0.298911 609.336 0.830935 608.804C1.36296 608.271 2.08442 607.972 2.83681 607.972H1137.16C1137.92 607.972 1138.64 608.271 1139.17 608.804C1139.7 609.336 1140 610.059 1140 610.812V627.824C1140 629.095 1139.45 632.046 1134.42 632.046ZM2.78994 609.933C2.55715 609.933 2.33388 610.026 2.16927 610.191C2.00467 610.356 1.91213 610.579 1.91213 610.812V627.824C1.91213 629.394 3.13476 630.084 5.53281 630.084H1134.37C1136.79 630.084 1137.99 629.331 1137.99 627.824V610.812C1137.99 610.579 1137.9 610.356 1137.74 610.191C1137.57 610.026 1137.35 609.933 1137.12 609.933H2.78994Z" fill="#343334"/>
<path d="M636.424 624.042H503.199C495.363 624.042 489.093 617.278 489.093 608.96V607.972H650.531V608.96C650.531 617.278 644.167 624.042 636.424 624.042ZM491.146 609.918C491.248 613.104 492.557 616.133 494.807 618.389C497.057 620.644 500.08 621.959 503.262 622.065H636.487C639.669 621.959 642.692 620.644 644.942 618.389C647.192 616.133 648.501 613.104 648.603 609.918H491.146Z" fill="#343334"/>
<path d="M1002.89 592.435H138.068C132.109 592.431 126.394 590.059 122.18 585.839C117.966 581.62 115.597 575.898 115.592 569.93V26.3026C115.597 20.3352 117.966 14.6135 122.18 10.3939C126.394 6.17438 132.109 3.80202 138.068 3.79786H1002.89C1008.85 3.80202 1014.56 6.17438 1018.78 10.3939C1022.99 14.6135 1025.36 20.3352 1025.36 26.3026V569.93C1025.36 575.898 1022.99 581.62 1018.78 585.839C1014.56 590.059 1008.85 592.431 1002.89 592.435ZM138.068 5.75956C132.625 5.75956 127.405 7.92342 123.555 11.7755C119.705 15.6276 117.54 20.8528 117.536 26.3026V569.93C117.54 575.377 119.703 580.6 123.55 584.452C127.396 588.304 132.612 590.469 138.053 590.473H1002.87C1005.57 590.482 1008.25 589.956 1010.75 588.928C1013.24 587.899 1015.51 586.388 1017.43 584.48C1019.34 582.571 1020.86 580.304 1021.89 577.808C1022.93 575.311 1023.47 572.634 1023.47 569.93V26.3026C1023.46 20.8555 1021.3 15.6327 1017.45 11.7811C1013.61 7.9294 1008.39 5.76372 1002.95 5.75956H138.068Z" fill="#343334"/>
<path d="M994.894 566.98H146.062C144.935 566.98 143.855 566.532 143.058 565.734C142.262 564.937 141.814 563.855 141.814 562.727V35.9071C141.814 34.7791 142.262 33.6973 143.058 32.8998C143.855 32.1022 144.935 31.6541 146.062 31.6541H994.894C996.021 31.6541 997.101 32.1022 997.898 32.8998C998.694 33.6973 999.142 34.7791 999.142 35.9071V562.727C999.142 563.286 999.032 563.839 998.818 564.354C998.605 564.871 998.292 565.339 997.898 565.734C997.503 566.129 997.035 566.443 996.52 566.656C996.004 566.87 995.452 566.98 994.894 566.98ZM146.062 33.6158C145.455 33.6158 144.873 33.8572 144.444 34.2869C144.015 34.7166 143.773 35.2994 143.773 35.9071V562.727C143.773 563.335 144.015 563.917 144.444 564.347C144.873 564.777 145.455 565.018 146.062 565.018H994.894C995.501 565.018 996.083 564.777 996.512 564.347C996.942 563.917 997.183 563.335 997.183 562.727V35.9071C997.183 35.2994 996.942 34.7166 996.512 34.2869C996.083 33.8572 995.501 33.6158 994.894 33.6158H146.062Z" fill="#343334"/>
<path d="M1028.4 609.934H112.614L112.442 609.164C112.004 607.249 111.778 605.291 111.768 603.326V26.7891C111.776 19.684 114.6 12.8726 119.619 7.84998C124.638 2.82741 131.443 0.00415258 138.539 0H1002.48C1009.57 0.00830685 1016.37 2.83339 1021.39 7.85551C1026.41 12.8776 1029.23 19.6867 1029.23 26.7891V603.326C1029.23 605.291 1029.01 607.249 1028.58 609.164L1028.4 609.934ZM114.182 607.972H1026.82C1027.13 606.422 1027.28 604.844 1027.28 603.264V26.7891C1027.27 20.207 1024.65 13.8969 1020 9.24265C1015.36 4.58841 1009.05 1.97001 1002.48 1.96171H138.539C131.962 1.96586 125.656 4.58243 121.005 9.23711C116.353 13.8918 113.735 20.2043 113.727 26.7891V603.326C113.732 604.886 113.885 606.441 114.182 607.972Z" fill="#343334"/>
<rect width="1140" height="643" fill="url(#paint0_linear_1233_433)"/>
<rect x="143" y="34" width="851" height="527" fill="#141316"/>
<defs>
<linearGradient id="paint0_linear_1233_433" x1="570" y1="0" x2="570" y2="735" gradientUnits="userSpaceOnUse">
<stop stop-color="#141316" stop-opacity="0"/>
<stop offset="1" stop-color="#141316"/>
</linearGradient>
</defs>
</svg>
