<svg width="15" height="8" viewBox="0 0 15 8" fill="none" xmlns="http://www.w3.org/2000/svg">
<path d="M8.0853 7.78279L14.7604 1.72295C14.9149 1.5828 15 1.3957 15 1.1962C15 0.996706 14.9149 0.809609 14.7604 0.669453L14.2689 0.223188C13.9487 -0.0671998 13.4282 -0.0671999 13.1084 0.223188L7.50311 5.31178L1.89157 0.217541C1.73706 0.0773845 1.53108 -5.88745e-07 1.31145 -5.98345e-07C1.09158 -6.07957e-07 0.885602 0.0773845 0.730969 0.217541L0.239632 0.663806C0.0851202 0.804073 -4.33206e-08 0.99106 -5.20409e-08 1.19056C-6.07611e-08 1.39005 0.0851201 1.57715 0.239632 1.71731L6.9208 7.78279C7.0758 7.92328 7.28275 8.00044 7.50274 8C7.72359 8.00044 7.93042 7.92328 8.0853 7.78279Z" fill="white"/>
</svg>
