<svg width="166" height="30" viewBox="0 0 166 30" fill="none" xmlns="http://www.w3.org/2000/svg">
<path d="M48.7008 21.1908L38.1336 2.86609C35.8164 -0.951083 30.1746 -0.99586 27.9358 3.02281L16.8537 22.0751C14.7828 25.5677 17.3462 29.9557 21.488 29.9557H43.7082C47.8836 29.9557 51.018 25.4557 48.7008 21.1908Z" fill="#3156AA"/>
<path d="M33.4641 22.6119L32.8148 21.4701C32.2104 20.4178 30.8671 18.1343 30.8671 18.1343L21.923 2.61928C19.617 -0.828492 14.1319 -1.11954 11.8148 3.23495L1.41548 21.2238C-0.733784 25.0074 1.81846 29.9216 6.49758 29.9552H28.5947H38.0201H43.6283C37.8969 30 36.0611 27.0335 33.4641 22.6119Z" fill="#1972E2"/>
<path d="M33.4635 22.612L32.8143 21.4702C32.2098 20.4179 30.8665 18.1343 30.8665 18.1343L25.0344 8.01489L16.8068 22.1194C14.7359 25.612 17.2993 30 21.4411 30H28.5493H37.9747H43.6166C37.8516 29.9553 36.0606 27.0336 33.4635 22.612Z" fill="url(#paint0_linear_1403_1320)"/>
<path d="M91.0234 28.2651V3.48145H111.621V5.04861C111.621 6.29116 110.624 7.28743 109.382 7.28743H96.1615V13.9479H109.382V17.7539H96.1615V24.4144H109.382C110.613 24.4144 111.621 25.4106 111.621 26.6532V28.2203L91.0234 28.2651Z" fill="white"/>
<path d="M141.207 3.48145H136.36C135.453 3.48145 134.647 3.86204 134.076 4.57846L128.221 11.9554L122.367 4.63443C121.796 3.91801 120.99 3.53742 120.083 3.53742H115.236L125.087 15.9069L115.236 28.2763H120.083C120.99 28.2763 121.796 27.8957 122.367 27.1793L128.221 19.8584L134.121 27.2353C134.692 27.8957 135.498 28.3323 136.404 28.3323H141.251L131.401 15.9628L141.207 3.48145Z" fill="white"/>
<path d="M74.8944 25.645L81.6444 13.8465V28.2085H86.7825V3.436H83.5922C82.5959 3.436 81.6444 3.96212 81.1631 4.86884L73.081 19.6114L64.9988 4.85765C64.5175 3.95093 63.566 3.4248 62.5697 3.4248H59.3906V28.2085H64.5287V13.8465L71.2787 25.645H74.8944Z" fill="white"/>
<path d="M154.628 28.5448C147.497 28.6344 141.687 23.0262 141.643 15.8955C141.643 11.9888 142.829 8.75374 145.068 6.52612C147.307 4.33208 150.542 3.14551 154.393 3.14551C158.915 3.14551 162.475 4.71268 165.049 7.75746L163.437 9.13433C162.441 9.98508 160.964 10.0411 159.867 9.23508C158.434 8.13806 156.631 7.61194 154.583 7.61194C149.546 7.61194 146.546 10.6567 146.546 15.7948C146.546 20.9777 149.635 24.168 154.583 24.168C156.676 24.168 158.434 23.5971 159.867 22.556C160.919 21.75 162.385 21.7948 163.437 22.6568L165.049 24.0336C162.475 27.0225 159.049 28.5448 154.628 28.5448Z" fill="white"/>
<defs>
<linearGradient id="paint0_linear_1403_1320" x1="14.3853" y1="15.7406" x2="38.4554" y2="25.1905" gradientUnits="userSpaceOnUse">
<stop stop-color="#264CA2" stop-opacity="0"/>
<stop offset="1" stop-color="#234588"/>
</linearGradient>
</defs>
</svg>
