<svg width="205" height="69" viewBox="0 0 205 69" fill="none" xmlns="http://www.w3.org/2000/svg">
<path d="M204.968 14.4592C204.968 13.9349 204.968 13.4074 204.968 12.8831C204.945 11.7336 204.838 10.5873 204.649 9.4532C204.463 8.31873 204.105 7.21924 203.587 6.19257C202.532 4.13033 200.855 2.4521 198.793 1.3953C197.763 0.876363 196.662 0.514622 195.525 0.322119C194.391 0.134469 193.244 0.0339237 192.095 0.0213646C191.57 0.0213646 191.036 0.00164346 190.514 0C189.899 0 189.271 0 188.655 0H16.3327C15.7049 0 15.0837 0 14.4592 0C13.9349 0 13.4123 0.0147907 12.8815 0.0213646C11.7322 0.0355844 10.5856 0.136671 9.45156 0.323761C8.31822 0.514443 7.22045 0.876304 6.19587 1.39694C5.17132 1.92197 4.23481 2.60341 3.42006 3.41676C2.60349 4.22862 1.92263 5.16639 1.40352 6.19421C0.88355 7.22052 0.522787 8.31999 0.333628 9.45485C0.143922 10.5886 0.0417281 11.7353 0.0279461 12.8848C0.00986801 13.409 0.00986078 13.9366 0 14.4608V54.0519C0.00986078 54.5844 0.00986801 55.1004 0.0279461 55.6345C0.0419482 56.784 0.144141 57.9306 0.333628 59.0644C0.523271 60.1987 0.884015 61.2975 1.40352 62.3234C1.92243 63.3479 2.60338 64.282 3.42006 65.0894C4.23224 65.9057 5.16925 66.5875 6.19587 67.1092C7.22035 67.6308 8.31809 67.9937 9.45156 68.1857C10.5855 68.3738 11.7321 68.476 12.8815 68.4913C13.4123 68.5045 13.9349 68.5094 14.4592 68.5094C15.0837 68.5094 15.7049 68.5094 16.3327 68.5094H188.655C189.271 68.5094 189.899 68.5094 190.514 68.5094C191.036 68.5094 191.57 68.5094 192.095 68.4913C193.242 68.4768 194.386 68.3746 195.518 68.1857C196.655 67.992 197.757 67.6292 198.787 67.1092C199.812 66.5875 200.748 65.9057 201.559 65.0894C202.374 64.2791 203.056 63.3457 203.581 62.3234C204.098 61.2972 204.456 60.1983 204.642 59.0644C204.831 57.9303 204.938 56.784 204.961 55.6345C204.961 55.1004 204.961 54.5844 204.961 54.0519C204.973 53.429 204.973 52.8111 204.973 52.18V16.3311C204.973 15.7033 204.973 15.0804 204.961 14.4592" fill="#1C191D"/>
<path d="M42.8194 34.0626C42.7734 29.165 46.8311 26.782 47.0168 26.667C44.7159 23.316 41.1578 22.8574 39.9088 22.8213C36.9144 22.5057 34.0153 24.6126 32.4935 24.6126C30.9388 24.6126 28.5903 22.8541 26.0643 22.9034C22.8119 22.9544 19.7665 24.8378 18.0951 27.7648C14.6438 33.7289 17.2224 42.4935 20.5209 47.322C22.1643 49.682 24.1036 52.3231 26.6263 52.2261C29.0915 52.1259 30.0201 50.6517 33.003 50.6517C35.9612 50.6517 36.824 52.2261 39.401 52.1686C42.0519 52.1259 43.72 49.7971 45.3174 47.4141C46.5035 45.7324 47.4159 43.8737 48.0209 41.9068C47.9585 41.8854 42.872 39.9347 42.821 34.0675" fill="white"/>
<path d="M37.9521 19.6528C39.2817 17.9912 40.1905 15.7315 39.9391 13.4355C38.0162 13.5243 35.6085 14.7668 34.2264 16.3938C32.9971 17.8252 31.9025 20.1737 32.1885 22.3809C34.3464 22.5453 36.5634 21.2913 37.9521 19.6544" fill="white"/>
<path d="M72.4619 46.4824H64.353L62.4072 52.2346H58.9707L66.6522 30.9648H70.2202L77.905 52.2329H74.4127L72.4619 46.4824ZM65.1928 43.8299H71.6188L68.4535 34.5016H68.3614L65.1928 43.8299Z" fill="white"/>
<path d="M94.4857 44.4808C94.4857 49.2994 91.9071 52.3957 88.0137 52.3957C85.8033 52.3957 84.0481 51.4096 83.1327 49.6823H83.062V57.3622H79.877V36.7236H82.9568V39.3006H83.0143C83.9002 37.6341 85.7869 36.5576 87.9447 36.5576C91.889 36.5576 94.4775 39.6703 94.4775 44.4758M91.2053 44.4758C91.2053 41.3352 89.5832 39.2693 87.1049 39.2693C84.6759 39.2693 83.039 41.3795 83.039 44.4758C83.039 47.5984 84.6824 49.6922 87.1049 49.6922C89.5832 49.6922 91.2053 47.6428 91.2053 44.4758Z" fill="white"/>
<path d="M111.554 44.4808C111.554 49.2994 108.977 52.3957 105.082 52.3957C102.872 52.3957 101.117 51.4096 100.201 49.6823H100.131V57.3622H96.9473V36.7236H100.029V39.3006H100.086C100.972 37.6341 102.857 36.5576 105.017 36.5576C108.961 36.5576 111.548 39.6703 111.548 44.4758M108.276 44.4758C108.276 41.3352 106.654 39.2693 104.167 39.2693C101.736 39.2693 100.101 41.3795 100.101 44.4758C100.101 47.5984 101.736 49.6922 104.167 49.6922C106.645 49.6922 108.276 47.6428 108.276 44.4758Z" fill="white"/>
<path d="M122.837 46.3048C123.073 48.415 125.12 49.7988 127.922 49.7988C130.605 49.7988 132.537 48.415 132.537 46.5119C132.537 44.8684 131.37 43.8725 128.614 43.197L125.859 42.5396C121.951 41.5864 120.143 39.7638 120.143 36.799C120.143 33.1259 123.341 30.6064 127.881 30.6064C132.379 30.6064 135.459 33.1259 135.562 36.799H132.351C132.157 34.6757 130.405 33.3938 127.84 33.3938C125.274 33.3938 123.52 34.6905 123.52 36.5771C123.52 38.0809 124.64 38.9667 127.381 39.6455L129.725 40.2191C134.088 41.2495 135.902 43.0031 135.902 46.1175C135.902 50.0963 132.734 52.5878 127.685 52.5878C122.967 52.5878 119.783 50.1571 119.576 46.3048H122.837Z" fill="white"/>
<path d="M142.769 33.0549V36.7264H145.728V39.2459H142.769V47.7919C142.769 49.1231 143.359 49.741 144.658 49.741C145.008 49.734 145.357 49.7087 145.705 49.6654V52.1733C145.122 52.2819 144.529 52.3309 143.936 52.3196C140.794 52.3196 139.57 51.1396 139.57 48.1354V39.2442H137.316V36.7248H139.57V33.0549H142.769Z" fill="white"/>
<path d="M147.424 44.48C147.424 39.6006 150.298 36.5322 154.78 36.5322C159.262 36.5322 162.136 39.6006 162.136 44.48C162.136 49.3595 159.29 52.4262 154.78 52.4262C150.27 52.4262 147.424 49.371 147.424 44.48ZM158.892 44.48C158.892 41.1323 157.357 39.1552 154.783 39.1552C152.21 39.1552 150.675 41.1454 150.675 44.48C150.675 47.8146 152.21 49.7999 154.783 49.7999C157.357 49.7999 158.892 47.8376 158.892 44.48Z" fill="white"/>
<path d="M164.762 36.7252H167.802V39.3629H167.875C168.368 37.611 169.779 36.5608 171.607 36.5608C171.973 36.5599 172.339 36.5996 172.697 36.6791V39.6604C172.234 39.5183 171.752 39.4528 171.268 39.4665C169.217 39.4665 167.95 40.8519 167.95 43.0361V52.2395H164.762V36.7252Z" fill="white"/>
<path d="M187.372 47.6814C186.941 50.495 184.2 52.4294 180.694 52.4294C176.185 52.4261 173.391 49.4037 173.391 44.5588C173.391 39.7139 176.204 36.542 180.566 36.542C184.857 36.542 187.556 39.4887 187.556 44.1923V45.2819H176.602V45.4759C176.602 48.1284 178.267 49.8656 180.775 49.8656C182.543 49.8656 183.929 49.029 184.356 47.6863L187.372 47.6814ZM176.609 43.0534H184.362C184.29 40.6786 182.772 39.1091 180.558 39.1091C178.344 39.1091 176.778 40.7049 176.613 43.0534" fill="white"/>
<path d="M64.795 14.9492C67.8256 14.9492 69.6055 16.8129 69.6055 20.0275C69.6055 23.2947 67.8404 25.1749 64.795 25.1749H61.1055V14.9492H64.795ZM62.6914 23.7253H64.6159C66.7524 23.7253 67.9883 22.3958 67.9883 20.0489C67.9883 17.7382 66.7327 16.3955 64.6159 16.3955H62.6914V23.7253Z" fill="white"/>
<path d="M71.3965 21.3107C71.3965 18.8242 72.7852 17.3105 75.0351 17.3105C77.285 17.3105 78.6705 18.8242 78.6705 21.3107C78.6705 23.7973 77.2916 25.3191 75.0351 25.3191C72.7787 25.3191 71.3965 23.8088 71.3965 21.3107ZM77.1059 21.3107C77.1059 19.636 76.3548 18.6598 75.0351 18.6598C73.7154 18.6598 72.9742 19.636 72.9742 21.3107C72.9742 22.9854 73.7171 23.9666 75.0384 23.9666C76.3598 23.9666 77.1092 22.9904 77.1092 21.3107" fill="white"/>
<path d="M88.3425 25.1724H86.7631L85.1706 19.4893H85.049L83.463 25.1724H81.8984L79.7734 17.458H81.3167L82.6988 23.3416H82.8106L84.3965 17.458H85.8592L87.4451 23.3416H87.5635L88.939 17.458H90.4625L88.3425 25.1724Z" fill="white"/>
<path d="M92.25 17.4581H93.7143V18.6825H93.8293C94.2057 17.8246 94.9699 17.3086 96.1302 17.3086C97.8542 17.3086 98.7992 18.344 98.7992 20.1748V25.166H97.2774V20.5643C97.2774 19.3284 96.7399 18.7121 95.6125 18.7121C94.4851 18.7121 93.7718 19.4615 93.7718 20.6678V25.166H92.25V17.4581Z" fill="white"/>
<path d="M102.746 14.4473H101.225V25.1725H102.746V14.4473Z" fill="white"/>
<path d="M104.858 21.3107C104.858 18.8242 106.248 17.3105 108.498 17.3105C110.748 17.3105 112.136 18.8242 112.136 21.3107C112.136 23.7973 110.754 25.3191 108.498 25.3191C106.241 25.3191 104.858 23.8088 104.858 21.3107ZM110.569 21.3107C110.569 19.636 109.816 18.6598 108.498 18.6598C107.18 18.6598 106.432 19.636 106.432 21.3107C106.432 22.9854 107.175 23.9666 108.498 23.9666C109.821 23.9666 110.569 22.9904 110.569 21.3107Z" fill="white"/>
<path d="M113.743 22.9906C113.743 21.6019 114.777 20.8015 116.611 20.6898L118.702 20.5714V19.9075C118.702 19.0956 118.161 18.6305 117.121 18.6305C116.271 18.6305 115.681 18.9461 115.513 19.4917H114.034C114.198 18.1671 115.436 17.3174 117.186 17.3174C119.121 17.3174 120.212 18.2788 120.212 19.9075V25.1666H118.744V24.0802H118.626C118.166 24.8543 117.323 25.2931 116.305 25.2931C114.826 25.2931 113.738 24.3958 113.738 22.9923M118.697 22.3349V21.6923L116.81 21.8106C115.748 21.8829 115.268 22.2445 115.268 22.9232C115.268 23.602 115.87 24.0244 116.697 24.0244C117.847 24.0244 118.697 23.2897 118.697 22.3349Z" fill="white"/>
<path d="M122.215 21.311C122.215 18.8721 123.47 17.3322 125.421 17.3322C126.473 17.3322 127.367 17.8252 127.783 18.6848H127.898V14.4463H129.421V25.1666H127.962V23.9472H127.84C127.384 24.7902 126.481 25.2915 125.421 25.2915C123.449 25.2915 122.215 23.7499 122.215 21.3061M123.789 21.3061C123.789 22.9496 124.56 23.9258 125.852 23.9258C127.144 23.9258 127.926 22.9282 127.926 21.3127C127.926 19.6972 127.125 18.6831 125.852 18.6831C124.578 18.6831 123.789 19.6692 123.789 21.2979" fill="white"/>
<path d="M135.717 21.3107C135.717 18.8242 137.106 17.3105 139.359 17.3105C141.612 17.3105 142.994 18.8242 142.994 21.3107C142.994 23.7973 141.612 25.3191 139.359 25.3191C137.106 25.3191 135.717 23.8088 135.717 21.3107ZM141.426 21.3107C141.426 19.636 140.675 18.6598 139.359 18.6598C138.042 18.6598 137.29 19.636 137.29 21.3107C137.29 22.9854 138.034 23.9666 139.359 23.9666C140.683 23.9666 141.426 22.9904 141.426 21.3107Z" fill="white"/>
<path d="M145.035 17.4581H146.499V18.6825H146.614C146.991 17.8246 147.755 17.3086 148.915 17.3086C150.637 17.3086 151.582 18.344 151.582 20.1748V25.166H150.061V20.5643C150.061 19.3284 149.521 18.7121 148.396 18.7121C147.27 18.7121 146.555 19.4615 146.555 20.6678V25.166H145.033L145.035 17.4581Z" fill="white"/>
<path d="M160.187 15.5361V17.4951H161.859V18.7754H160.187V22.7411C160.187 23.5513 160.516 23.903 161.28 23.903C161.474 23.9039 161.667 23.8918 161.859 23.8669V25.1373C161.587 25.1856 161.312 25.2109 161.037 25.2128C159.346 25.2128 158.672 24.6196 158.672 23.1322V18.7754H157.449V17.4951H158.674V15.5361H160.187Z" fill="white"/>
<path d="M163.939 14.4463H165.448V18.6946H165.57C165.943 17.8302 166.76 17.3158 167.92 17.3158C169.563 17.3158 170.577 18.3544 170.577 20.1935V25.1666H169.054V20.5649C169.054 19.3323 168.479 18.7061 167.41 18.7061C166.161 18.7061 165.468 19.495 165.468 20.6635V25.1666H163.946L163.939 14.4463Z" fill="white"/>
<path d="M179.453 23.087C179.106 24.4692 177.872 25.3205 176.11 25.3205C173.899 25.3205 172.547 23.8052 172.547 21.3367C172.547 18.8682 173.927 17.3086 176.103 17.3086C178.24 17.3086 179.543 18.7746 179.543 21.197V21.7279H174.097V21.8133C174.148 23.1675 174.933 24.0238 176.153 24.0238C177.071 24.0238 177.702 23.6951 177.987 23.087H179.453ZM174.097 20.6021H177.992C177.955 19.3925 177.221 18.6036 176.093 18.6036C174.966 18.6036 174.18 19.3991 174.095 20.6021" fill="white"/>
</svg>
