<svg width="203" height="60" viewBox="0 0 203 60" fill="none" xmlns="http://www.w3.org/2000/svg">
<path d="M196.212 0.9375C197.903 0.939673 199.524 1.61214 200.719 2.80747C201.915 4.00281 202.588 5.62346 202.59 7.31414V52.8677C202.588 54.5585 201.915 56.1793 200.719 57.3749C199.524 58.5705 197.903 59.2433 196.212 59.2459H6.41992C4.7294 59.2433 3.10891 58.5704 1.91384 57.3747C0.718768 56.179 0.0466604 54.5582 0.0449219 52.8677V7.31414C0.0466613 5.62377 0.718821 4.0031 1.91394 2.80767C3.10906 1.61224 4.72955 0.939675 6.41992 0.9375H196.212Z" fill="#1C191D"/>
<path d="M70.827 15.2765C70.827 16.5507 70.4495 17.5636 69.6946 18.3152C68.8368 19.2158 67.7214 19.6661 66.3486 19.6661C65.7025 19.7001 65.0563 19.6022 64.4493 19.3783C63.8423 19.1545 63.2872 18.8094 62.8179 18.3641C62.3486 17.9188 61.9748 17.3826 61.7194 16.7882C61.464 16.1938 61.3323 15.5536 61.3323 14.9067C61.3323 14.2597 61.464 13.6195 61.7194 13.0251C61.9748 12.4307 62.3486 11.8945 62.8179 11.4492C63.2872 11.0039 63.8423 10.6588 64.4493 10.435C65.0563 10.2111 65.7025 10.1132 66.3486 10.1472C66.9908 10.1463 67.6266 10.2761 68.2172 10.5285C68.7654 10.7518 69.254 11.1002 69.6437 11.5458L68.8433 12.3494C68.2385 11.628 67.4102 11.268 66.3486 11.268C65.8871 11.2621 65.4292 11.3485 65.0016 11.522C64.574 11.6956 64.1854 11.9529 63.8587 12.2788C63.1608 12.9548 62.8118 13.8313 62.8118 14.9083C62.8118 15.9881 63.1602 16.8624 63.8587 17.5379C64.5352 18.1877 65.4368 18.5506 66.3749 18.5506C67.3129 18.5506 68.2145 18.1877 68.891 17.5379C69.3315 17.0974 69.5878 16.4795 69.6552 15.6922H66.3486V14.5977H70.7629C70.8045 14.8249 70.826 15.0553 70.827 15.2863" fill="white"/>
<path d="M77.8261 11.4701H73.6796V14.3593H77.4185V15.4538H73.6796V18.3431H77.8261V19.4606H72.5078V10.3525H77.8261V11.4701Z" fill="white"/>
<path d="M82.7611 19.4613H81.5893V11.4691H79.0469V10.3516H85.3068V11.4691H82.7611V19.4613Z" fill="white"/>
<path d="M91.0044 10.3525H89.8359V19.4623H91.0044V10.3525Z" fill="white"/>
<path d="M96.1986 19.4613H95.0268V11.4691H92.4844V10.3516H98.741V11.4691H96.1986V19.4613Z" fill="white"/>
<path d="M110.595 18.2848C109.708 19.169 108.506 19.6655 107.254 19.6655C106.001 19.6655 104.8 19.169 103.913 18.2848C103.053 17.3704 102.574 16.1626 102.574 14.9075C102.574 13.6524 103.053 12.4446 103.913 11.5302C104.35 11.0913 104.871 10.743 105.443 10.5054C106.016 10.2678 106.63 10.1455 107.25 10.1455C107.87 10.1455 108.483 10.2678 109.056 10.5054C109.629 10.743 110.149 11.0913 110.587 11.5302C111.452 12.4405 111.935 13.6477 111.936 14.9034C111.938 16.1591 111.458 17.3675 110.595 18.2799M104.777 17.5157C105.434 18.1711 106.324 18.5392 107.251 18.5392C108.179 18.5392 109.069 18.1711 109.726 17.5157C110.4 16.8342 110.738 15.9626 110.74 14.9009C110.741 13.8393 110.403 12.9682 109.726 12.2878C109.069 11.6324 108.179 11.2643 107.251 11.2643C106.324 11.2643 105.434 11.6324 104.777 12.2878C104.107 12.9715 103.766 13.8425 103.766 14.9009C103.766 15.9593 104.107 16.8336 104.777 17.5157Z" fill="white"/>
<path d="M113.578 19.4613V10.3516H115.003L119.431 17.4398H119.481L119.431 15.6846V10.3516H120.602V19.4613H119.381L114.748 12.0312H114.699L114.748 13.7897V19.4613H113.578Z" fill="white"/>
<path d="M102.283 32.7567C98.7113 32.7567 95.7991 35.4717 95.7991 39.2138C95.7991 42.956 98.7113 45.6726 102.283 45.6726C105.854 45.6726 108.766 42.9313 108.766 39.2138C108.766 35.4963 105.855 32.7567 102.283 32.7567ZM102.283 43.1269C100.327 43.1269 98.639 41.5147 98.639 39.2138C98.639 36.913 100.327 35.3007 102.283 35.3007C104.238 35.3007 105.928 36.8916 105.928 39.2138C105.928 41.536 104.24 43.1269 102.283 43.1269ZM88.1488 32.7567C84.5759 32.7567 81.6653 35.4717 81.6653 39.2138C81.6653 42.956 84.5759 45.6726 88.1488 45.6726C91.7216 45.6726 94.6289 42.9313 94.6289 39.2138C94.6289 35.4963 91.7134 32.7567 88.1422 32.7567M88.1422 43.1269C86.1848 43.1269 84.497 41.5147 84.497 39.2138C84.497 36.913 86.1848 35.3007 88.1422 35.3007C90.0995 35.3007 91.7858 36.8916 91.7858 39.2138C91.7858 41.536 90.0979 43.1269 88.1422 43.1269ZM71.3197 34.7452V37.4833H77.882C77.6848 39.0248 77.1721 40.1506 76.3898 40.9345C75.4349 41.891 73.9427 42.9396 71.3246 42.9396C67.2883 42.9396 64.1328 39.6871 64.1328 35.6492C64.1328 31.6112 67.2883 28.3604 71.3246 28.3604C73.1658 28.3361 74.942 29.0402 76.2665 30.3194L78.1976 28.3867C76.5541 26.8205 74.3848 25.624 71.3246 25.624C65.796 25.624 61.1483 30.1238 61.1483 35.6492C61.1483 41.1745 65.796 45.6743 71.3246 45.6743C74.3092 45.6743 76.559 44.6882 78.3192 42.8607C80.127 41.0529 80.6924 38.5088 80.6924 36.4512C80.6988 35.877 80.6503 35.3036 80.5477 34.7387L71.3197 34.7452ZM140.113 36.8653C139.576 35.4224 137.939 32.7567 134.586 32.7567C131.26 32.7567 128.494 35.3747 128.494 39.2138C128.494 42.8294 131.235 45.6726 134.904 45.6726C135.968 45.6782 137.016 45.4196 137.956 44.9199C138.895 44.4202 139.696 43.6951 140.286 42.8097L138.084 41.3421C137.351 42.4202 136.348 43.1269 134.904 43.1269C133.459 43.1269 132.438 42.4695 131.773 41.1712L140.409 37.6016L140.113 36.8653ZM131.308 39.0199C131.235 36.5251 133.24 35.2531 134.683 35.2531C135.811 35.2531 136.764 35.8184 137.081 36.6237L131.308 39.0199ZM124.29 45.2815H127.128V26.2913H124.29V45.2815ZM119.639 34.1996H119.542C118.906 33.4436 117.682 32.7583 116.142 32.7583C112.914 32.7583 109.953 35.5982 109.953 39.2401C109.953 42.882 112.911 45.6743 116.142 45.6743C117.682 45.6743 118.906 44.989 119.542 44.2067H119.639V45.1369C119.639 47.6021 118.324 48.9267 116.188 48.9267C114.451 48.9267 113.373 47.6793 112.935 46.6259L110.47 47.6563C111.182 49.3671 113.064 51.4724 116.196 51.4724C119.524 51.4724 122.334 49.5134 122.334 44.7441V33.1429H119.644L119.639 34.1996ZM116.387 43.1286C114.429 43.1286 112.791 41.4851 112.791 39.2401C112.791 36.9952 114.434 35.2958 116.387 35.2958C118.339 35.2958 119.838 36.959 119.838 39.2401C119.838 41.5213 118.323 43.1286 116.387 43.1286ZM153.406 26.3028H146.618V45.2733H149.448V38.0815H153.406C156.545 38.0815 159.633 35.8102 159.633 32.1864C159.633 28.5625 156.545 26.2946 153.406 26.2946M153.478 35.4421H149.448V28.934H153.481C154.344 28.934 155.172 29.2768 155.782 29.8871C156.393 30.4973 156.735 31.325 156.735 32.188C156.735 33.051 156.393 33.8787 155.782 34.489C155.172 35.0992 154.344 35.4421 153.481 35.4421M170.994 32.7123C168.94 32.7123 166.816 33.6195 165.937 35.6179L168.453 36.6697C168.989 35.6179 169.992 35.2777 171.042 35.2777C172.508 35.2777 174 36.1586 174.02 37.7199V37.9171C173.109 37.4328 172.093 37.1804 171.062 37.1825C168.353 37.1825 165.595 38.6715 165.595 41.4555C165.595 43.9963 167.814 45.6332 170.307 45.6332C172.212 45.6332 173.265 44.777 173.923 43.7777H174.021V45.247H176.758V37.9648C176.758 34.5973 174.242 32.7057 170.996 32.7057M170.651 43.1088C169.724 43.1088 168.429 42.6487 168.429 41.4982C168.429 40.0339 170.041 39.4719 171.433 39.4719C172.679 39.4719 173.264 39.743 174.021 40.1062C173.918 40.9309 173.519 41.6899 172.898 42.2424C172.277 42.795 171.477 43.1034 170.646 43.1105M186.715 33.1281L183.468 41.3553H183.368L180 33.1281H176.947L182.004 44.6323L179.119 51.032H182.078L189.868 33.133L186.715 33.1281ZM161.196 45.2684H164.029V26.2913H161.196V45.2684Z" fill="white"/>
<path d="M47.8695 32.0498L40.2472 36.4509L33.7949 30.0792L40.1749 23.6895L47.8679 28.1268C48.2132 28.3247 48.5001 28.6103 48.6997 28.9546C48.8994 29.2989 49.0045 29.6898 49.0047 30.0878C49.0049 30.4858 48.9 30.8768 48.7007 31.2213C48.5014 31.5658 48.2147 31.8515 47.8695 32.0498Z" fill="#FED400"/>
<path d="M40.2467 36.4508L17.3615 49.6626C16.9274 49.9151 16.4214 50.0154 15.9239 49.9475C15.4264 49.8796 14.9658 49.6474 14.6152 49.2879L33.7944 30.0791L40.2467 36.4508Z" fill="#F83345"/>
<path d="M33.7956 30.0791L14.6163 49.2879C14.409 49.0798 14.2451 48.8326 14.1339 48.5606C14.0228 48.2887 13.9666 47.9974 13.9688 47.7036V12.476C13.966 11.9415 14.1549 11.4237 14.5013 11.0166L33.7956 30.0791Z" fill="#00D7FE"/>
<path d="M40.1761 23.6894L33.7962 30.0792L14.502 11.015C14.8452 10.6101 15.3199 10.3388 15.843 10.2487C16.3661 10.1585 16.9043 10.2553 17.3632 10.522L40.1761 23.6894Z" fill="#00EF77"/>
</svg>
