<svg width="71" height="51" viewBox="0 0 71 51" fill="none" xmlns="http://www.w3.org/2000/svg">
<rect width="71" height="51" fill="#1E1E1E"/>
<g id="down" clip-path="url(#clip0_1233_433)">
<rect width="1920" height="5914" transform="translate(-783 -5113)" fill="#141316"/>
<rect id="Rectangle 1325" x="-100" y="-86" width="264" height="355" rx="24" stroke="#1C191D" stroke-width="2"/>
<g id="Group 395">
<path id="Vector" d="M35.1203 1.87834C20.2417 1.87834 8.06846 14.0517 8.06846 28.9302V44.1195C8.06846 47.9039 11.1653 51 14.9489 51H55.2921C59.0756 51 62.1722 47.9032 62.1722 44.1197V28.9302C62.1722 14.0523 49.9989 1.87834 35.1203 1.87834ZM19.6008 25.3593C19.6008 22.8024 21.6736 20.7295 24.2306 20.7295C26.7877 20.7295 28.8604 22.8024 28.8604 25.3593C28.8604 27.9164 26.7877 29.9891 24.2306 29.9891C21.6736 29.9891 19.6008 27.9164 19.6008 25.3593ZM35.1202 43.6708C31.1107 43.6708 27.6432 41.3533 25.9822 37.985H44.2585C42.5974 41.3533 39.1297 43.6708 35.1202 43.6708ZM47.0864 29.9891C44.5293 29.9891 42.4566 27.9164 42.4566 25.3593C42.4566 22.8024 44.5293 20.7295 47.0864 20.7295C49.6434 20.7295 51.7162 22.8024 51.7162 25.3593C51.7162 27.9164 49.6434 29.9891 47.0864 29.9891ZM3.11528 23.4966H6.45264C6.11161 25.2877 5.93996 27.1069 5.93995 28.9302V36.6183H3.11528C1.49691 36.6183 0.172693 35.2942 0.172693 33.6757V26.439C0.172693 24.8208 1.49677 23.4966 3.11528 23.4966ZM8.24115 4.12065C8.24115 6.02836 6.94461 7.63296 5.18476 8.10223V21.3682H3.11528C3.09556 21.3682 3.07598 21.3688 3.05625 21.3689V8.10223C1.2964 7.63296 0 6.02836 0 4.12065C0 1.84485 1.84485 0 4.12065 0C6.39644 0 8.24115 1.84485 8.24115 4.12065ZM65.0558 8.10223C63.2961 7.63296 61.9995 6.02836 61.9995 4.12065C61.9995 1.84485 63.8444 0 66.1202 0C68.396 0 70.2407 1.84485 70.2407 4.12065C70.2407 6.02836 68.9443 7.63296 67.1843 8.10223V21.3689C67.1647 21.3688 67.1451 21.3682 67.1254 21.3682H65.0558V8.10223ZM70.068 26.4392V33.6758C70.068 35.2942 68.7438 36.6184 67.1256 36.6184H64.3008V28.9304C64.3007 27.1071 64.1291 25.2878 63.7881 23.4967H67.1256C68.7438 23.4966 70.068 24.8208 70.068 26.4392Z" fill="#555155"/>
</g>
</g>
<defs>
<clipPath id="clip0_1233_433">
<rect width="1920" height="5914" fill="white" transform="translate(-783 -5113)"/>
</clipPath>
</defs>
</svg>
