<svg width="74" height="51" viewBox="0 0 74 51" fill="none" xmlns="http://www.w3.org/2000/svg">
<rect width="74" height="51" fill="#1E1E1E"/>
<g id="down" clip-path="url(#clip0_1233_433)">
<rect width="1920" height="5914" transform="translate(-486 -5502)" fill="#141316"/>
<rect id="Rectangle 1331" x="-95" y="-83" width="264" height="355" rx="24" stroke="#1C191D" stroke-width="2"/>
<path id="Vector" d="M38.6394 50.9332L23.4575 50.6565C18.5419 50.5601 13.6141 50.7526 8.79492 49.7539C1.46382 48.2617 0.944462 40.9454 0.401006 34.8084C-0.347822 26.1806 -0.0579282 17.3962 1.35521 8.84039C2.15297 4.03969 5.29248 1.17507 10.1476 0.863346C26.5373 -0.267948 43.036 -0.133878 59.3894 0.393912C61.1165 0.442296 62.8555 0.706744 64.5585 1.00776C72.965 2.47589 73.17 10.7669 73.715 17.7463C74.2584 24.7978 74.029 31.8855 72.9902 38.8889C72.1569 44.6876 70.5625 49.5504 63.8338 50.0198C55.4032 50.6336 47.1661 51.1278 38.7117 50.9705C38.7121 50.9332 38.6635 50.9332 38.6394 50.9332ZM29.7139 36.2526C36.0671 32.6183 42.299 29.0445 48.6159 25.4346C42.2509 21.8002 36.0308 18.2265 29.7139 14.6165V36.2526Z" fill="#555155"/>
</g>
<defs>
<clipPath id="clip0_1233_433">
<rect width="1920" height="5914" fill="white" transform="translate(-486 -5502)"/>
</clipPath>
</defs>
</svg>
