<svg width="90" height="51" viewBox="0 0 90 51" fill="none" xmlns="http://www.w3.org/2000/svg">
<rect width="90" height="51" fill="#1E1E1E"/>
<g id="down" clip-path="url(#clip0_1233_433)">
<rect width="1920" height="5914" transform="translate(-1352 -5113)" fill="#141316"/>
<rect id="Rectangle 1329" x="-87" y="-86" width="264" height="355" rx="24" stroke="#1C191D" stroke-width="2"/>
<path id="Vector" d="M25.3831 0C39.4019 0 50.7654 11.4174 50.7654 25.5004C50.7654 39.5835 39.401 51 25.3831 51C11.3652 51 0 39.5835 0 25.5004C0 11.4174 11.3644 0 25.3831 0ZM65.9182 1.49375C72.9276 1.49375 78.6098 12.2408 78.6098 25.5004H78.6106C78.6106 38.7566 72.9284 49.5071 65.9191 49.5071C58.9097 49.5071 53.2275 38.7566 53.2275 25.5004C53.2275 12.2443 58.9088 1.49375 65.9182 1.49375ZM85.5363 3.99423C88.001 3.99423 90 13.6227 90 25.5004C90 37.3747 88.0019 47.0066 85.5363 47.0066C83.0708 47.0066 81.0736 37.3773 81.0736 25.5004C81.0736 13.6236 83.0717 3.99423 85.5363 3.99423Z" fill="#555155"/>
</g>
<defs>
<clipPath id="clip0_1233_433">
<rect width="1920" height="5914" fill="white" transform="translate(-1352 -5113)"/>
</clipPath>
</defs>
</svg>
