<svg width="63" height="51" viewBox="0 0 63 51" fill="none" xmlns="http://www.w3.org/2000/svg">
<rect width="63" height="51" fill="#1E1E1E"/>
<g id="down" clip-path="url(#clip0_1233_433)">
<rect width="1920" height="5914" transform="translate(-491 -5113)" fill="#141316"/>
<rect id="Rectangle 1250" x="-100" y="-86" width="264" height="355" rx="24" stroke="#1C191D" stroke-width="2"/>
<path id="Vector" d="M3.86242 22.2106C3.86242 22.2106 31.7258 11.0152 41.3893 7.07297C45.0938 5.49623 57.6564 0.450197 57.6564 0.450197C57.6564 0.450197 63.4547 -1.75725 62.9714 3.60391C62.8102 5.81158 61.5218 13.538 60.2334 21.8953C58.3006 33.7216 56.2068 46.6516 56.2068 46.6516C56.2068 46.6516 55.8847 50.2785 53.1468 50.9092C50.4088 51.5399 45.8989 48.7017 45.0938 48.0708C44.4494 47.5979 33.0142 40.502 28.8267 37.0329C27.6992 36.0869 26.4108 34.1948 28.9876 31.9871C34.7859 26.7835 41.7114 20.3185 45.8989 16.2188C47.8318 14.3264 49.7644 9.91133 41.7114 15.2725C30.2763 22.9991 19.0021 30.2526 19.0021 30.2526C19.0021 30.2526 16.425 31.8293 11.5933 30.4101C6.76133 28.9912 1.12423 27.0989 1.12423 27.0989C1.12423 27.0989 -2.74098 24.7336 3.86242 22.2106Z" fill="#555155"/>
</g>
<defs>
<clipPath id="clip0_1233_433">
<rect width="1920" height="5914" fill="white" transform="translate(-491 -5113)"/>
</clipPath>
</defs>
</svg>
