<svg width="56" height="51" viewBox="0 0 56 51" fill="none" xmlns="http://www.w3.org/2000/svg">
<rect width="56" height="51" fill="#1E1E1E"/>
<g id="down" clip-path="url(#clip0_1233_433)">
<rect width="1920" height="5914" transform="translate(-1369 -5502)" fill="#141316"/>
<rect id="Rectangle 1334" x="-104" y="-83" width="264" height="355" rx="24" stroke="#1C191D" stroke-width="2"/>
<g id="Vector">
<path d="M55.8927 10.5292L36.2507 30.0436C34.0605 32.214 31.0934 33.4329 28 33.4329C24.9066 33.4329 21.9395 32.214 19.7493 30.0436L0.107333 10.5292C0.0746667 10.8955 0 11.227 0 11.5909V39.4091C0.003705 42.4821 1.23406 45.4281 3.42118 47.601C5.6083 49.774 8.57361 50.9963 11.6667 51H44.3333C47.4264 50.9963 50.3917 49.774 52.5788 47.601C54.7659 45.4281 55.9963 42.4821 56 39.4091V11.5909C56 11.227 55.9253 10.8955 55.8927 10.5292Z" fill="#555155"/>
<path d="M32.9513 26.7657L54.264 5.58914C53.2316 3.88833 51.7754 2.48054 50.0359 1.50156C48.2965 0.522572 46.3325 0.00542609 44.3333 0H11.6667C9.66752 0.00542609 7.7035 0.522572 5.96406 1.50156C4.22462 2.48054 2.76845 3.88833 1.736 5.58914L23.0487 26.7657C24.3637 28.067 26.144 28.7975 28 28.7975C29.856 28.7975 31.6363 28.067 32.9513 26.7657Z" fill="#555155"/>
</g>
</g>
<defs>
<clipPath id="clip0_1233_433">
<rect width="1920" height="5914" fill="white" transform="translate(-1369 -5502)"/>
</clipPath>
</defs>
</svg>
