<svg width="43" height="51" viewBox="0 0 43 51" fill="none" xmlns="http://www.w3.org/2000/svg">
<rect width="43" height="51" fill="#1E1E1E"/>
<g id="down" clip-path="url(#clip0_1233_433)">
<rect width="1920" height="5914" transform="translate(-1082 -5502)" fill="#141316"/>
<rect id="Rectangle 1333" x="-107" y="-83" width="264" height="355" rx="24" stroke="#1C191D" stroke-width="2"/>
<path id="Vector" d="M25.8 14.875V0.9775C27.7889 1.71984 29.5954 2.87154 31.0997 4.35625L38.5903 11.764C40.0942 13.2491 41.2604 15.0342 42.011 17H27.95C27.3798 17 26.8329 16.7761 26.4297 16.3776C26.0265 15.9791 25.8 15.4386 25.8 14.875ZM43 22.2806V40.375C42.9966 43.1919 41.8629 45.8924 39.8476 47.8843C37.8324 49.8761 35.1 50.9966 32.25 51H10.75C7.89997 50.9966 5.16765 49.8761 3.15237 47.8843C1.1371 45.8924 0.00341389 43.1919 0 40.375V10.625C0.00341389 7.80811 1.1371 5.10756 3.15237 3.11572C5.16765 1.12387 7.89997 0.0033742 10.75 0H20.4573C20.8077 0 21.1539 0.027625 21.5 0.051V14.875C21.5 16.5658 22.1796 18.1873 23.3892 19.3828C24.5988 20.5784 26.2394 21.25 27.95 21.25H42.9484C42.972 21.5921 43 21.9342 43 22.2806ZM25.8 40.375C25.8 39.8114 25.5735 39.2709 25.1703 38.8724C24.7671 38.4739 24.2202 38.25 23.65 38.25H12.9C12.3298 38.25 11.7829 38.4739 11.3797 38.8724C10.9765 39.2709 10.75 39.8114 10.75 40.375C10.75 40.9386 10.9765 41.4791 11.3797 41.8776C11.7829 42.2761 12.3298 42.5 12.9 42.5H23.65C24.2202 42.5 24.7671 42.2761 25.1703 41.8776C25.5735 41.4791 25.8 40.9386 25.8 40.375ZM32.25 31.875C32.25 31.3114 32.0235 30.7709 31.6203 30.3724C31.2171 29.9739 30.6702 29.75 30.1 29.75H12.9C12.3298 29.75 11.7829 29.9739 11.3797 30.3724C10.9765 30.7709 10.75 31.3114 10.75 31.875C10.75 32.4386 10.9765 32.9791 11.3797 33.3776C11.7829 33.7761 12.3298 34 12.9 34H30.1C30.6702 34 31.2171 33.7761 31.6203 33.3776C32.0235 32.9791 32.25 32.4386 32.25 31.875Z" fill="#555155"/>
</g>
<defs>
<clipPath id="clip0_1233_433">
<rect width="1920" height="5914" fill="white" transform="translate(-1082 -5502)"/>
</clipPath>
</defs>
</svg>
