<svg width="39" height="51" viewBox="0 0 39 51" fill="none" xmlns="http://www.w3.org/2000/svg">
<rect width="39" height="51" fill="#1E1E1E"/>
<g id="down" clip-path="url(#clip0_1233_433)">
<rect width="1920" height="5914" transform="translate(-799 -5502)" fill="#141316"/>
<rect id="Rectangle 1332" x="-116" y="-83" width="264" height="355" rx="24" stroke="#1C191D" stroke-width="2"/>
<path id="Vector" d="M2.07647 19.1249C0.798968 19.1249 -0.193266 17.9391 0.032054 16.6471C0.774162 12.395 2.83511 8.44247 5.93377 5.45683C9.93371 1.59994 15.1574 -0.323192 20.6643 0.0444344C31.0435 0.732937 39.1508 10.0213 38.9979 21.1181C38.9152 27.1064 34.0594 31.8771 28.2321 31.8771H22.1713C21.4271 32.6123 20.4224 33.0692 19.3103 33.0692C17.0261 33.0692 15.176 31.1673 15.176 28.8192C15.176 26.471 17.0261 24.5692 19.3103 24.5692C21.1873 24.5692 22.7542 25.8633 23.2586 27.627H28.2321C31.8207 27.627 34.8243 24.6882 34.8636 21.0013C34.9587 12.191 28.5691 4.83208 20.3976 4.28807C16.0587 4.01182 11.9202 5.51633 8.75957 8.56147C6.26038 10.9691 4.65007 14.0525 4.08574 17.4397C3.92037 18.43 3.05216 19.1291 2.07647 19.1291V19.1249ZM19.362 36.1249C11.7239 36.1249 5.11518 40.9955 2.9178 48.2417C2.72142 48.8877 2.83511 49.5911 3.2258 50.1351C3.6165 50.6791 4.23457 51 4.89193 51H33.8321C34.4894 51 35.1075 50.6791 35.4982 50.1351C35.8889 49.5911 36.0026 48.8877 35.8062 48.2417C33.6088 40.9955 27.0001 36.1249 19.362 36.1249ZM25.427 23.3749H30.2931C30.5722 22.3613 30.7313 21.2945 30.7313 20.1874C30.7313 13.7316 25.642 8.49984 19.362 8.49984C13.082 8.49984 7.99266 13.7316 7.99266 20.1874C7.99266 23.3558 9.22468 26.2245 11.2153 28.3304C11.4655 23.9401 14.9755 20.4488 19.3103 20.4488C21.7723 20.4488 23.9428 21.5984 25.4291 23.3749H25.427Z" fill="#555155"/>
</g>
<defs>
<clipPath id="clip0_1233_433">
<rect width="1920" height="5914" fill="white" transform="translate(-799 -5502)"/>
</clipPath>
</defs>
</svg>
